<svg 
          width="32.13797378540039" 
          height="31.779830932617188" fill="none" 
          xmlns="http://www.w3.org/2000/svg">
          <path d="M 24.911250615248157 2.1495166655693865 C 23.38375057379485 1.1745165756238622 21.677500697506535 0.4595165903784386 19.841250650765563 0.03701658368789575 C 19.603916478000688 -0.014579501303013803 19.358024674279015 -0.012209227484141938 19.12172922610153 0.04395235933212946 C 18.885433777924042 0.10011394614840086 18.664769552376523 0.2086323795508178 18.476030301949667 0.3614955846071248 C 18.28729105152281 0.5143587896634317 18.135295742040512 0.7076628076878058 18.031268178041486 0.9271347339071717 C 17.92724061404246 1.1466066601265377 17.87383738475131 1.3866416385303257 17.875000530429485 1.629516746741844 C 17.875000530429485 2.360766765772211 18.362500176837052 3.0432664776254486 19.07750019417993 3.205766488580638 C 20.556250280678235 3.5307665104910164 21.95375141082705 4.115766830816602 23.188751431977696 4.9120168881291875 C 23.822501427538022 5.3182669094635635 24.635000337786618 5.18826717190056 25.171250375008164 4.652017122430522 C 25.902500377336043 3.9207671034001548 25.78875067615614 2.7020167003955913 24.911250615248157 2.1495166655693865 Z M 30.501251648971575 14.255767378819842 C 31.541251656587114 14.255767378819842 32.33750096928091 13.297017274230484 32.09375095236203 12.289517213572626 C 31.671250955321813 10.469517110246017 30.956252197127096 8.763267194985232 29.98125212945156 7.2195171332861126 C 29.42875210724501 6.342017052335141 28.19375019737213 6.22826734855708 27.46250019504425 6.959517367587447 C 26.94250019123648 7.479517383272542 26.812500432428415 8.308267120724802 27.202500435284243 8.942017130760616 C 27.998750474409675 10.193267165476078 28.58375233109407 11.574517567328638 28.90875234558112 13.05326768760309 C 29.00268035484603 13.402253489685993 29.210265348400494 13.709968312715382 29.498681466938216 13.927751914931081 C 29.787097585475937 14.14553551714678 30.1398839488026 14.260958459743001 30.501251648971575 14.255767378819842 Z M 27.46250019504425 24.802017560727247 C 28.19375019737213 25.533267579757613 29.42875210724501 25.419518166552212 29.98125212945156 24.55826816781496 C 30.956252197127096 23.030768091472005 31.671250955321813 21.324517013920588 32.09375095236203 19.504516910593978 C 32.32125096008153 18.49701684993612 31.525001671602116 17.538268295067606 30.501251648971575 17.538268295067606 C 29.770001646643696 17.538268295067606 29.08749962579823 18.025767952610156 28.924999618554704 18.740767986284357 C 28.599999604067655 20.21951810655881 27.998750813411103 21.600769283271795 27.218750807699447 22.852019317987256 C 26.81250079564423 23.453269357310738 26.94250019123648 24.28201754504215 27.46250019504425 24.802017560727247 Z M 17.875000530429485 30.13201895643327 C 17.875000530429485 31.17201898780346 18.833750613120024 31.9682683186844 19.841250650765563 31.72451829619802 C 21.661250712521532 31.302018289507476 23.367500201379645 30.587019514981463 24.895000242832953 29.61201942503594 C 25.772500303740937 29.059519390209733 25.88625000492084 27.82451745212816 25.15500000259296 27.093267433097793 C 24.63499999878519 26.573267417412698 23.80625144255302 26.44326801885113 23.188751431977696 26.849518040185504 C 21.95375141082705 27.64576809749809 20.572500265663237 28.23076686810283 19.07750019417993 28.55576689001321 C 18.362500176837052 28.7182669009684 17.875000530429485 29.384518903617963 17.875000530429485 30.13201895643327 Z M 14.625000433987761 30.13201895643327 C 14.625000433987761 31.17201898780346 13.666250351297224 31.968268681900224 12.658750313651685 31.740768668984398 C 5.4112500365978065 30.099518598290725 0 23.63201784022283 0 15.880767464157346 C 0 8.129517088091863 5.4112500365978065 1.6620166690254008 12.658750313651685 0.03701658368789575 C 12.89608448641656 -0.014579501303013803 13.141976290138231 -0.012209227484141938 13.378271738315718 0.04395235933212946 C 13.614567186493204 0.10011394614840086 13.835231412040724 0.2086323795508178 14.023970662467582 0.3614955846071248 C 14.21270991289444 0.5143587896634317 14.364705222376738 0.7076628076878058 14.468732786375764 0.9271347339071717 C 14.57276035037479 1.1466066601265377 14.626163579665937 1.3866416385303257 14.625000433987761 1.629516746741844 C 14.625000433987765 2.377016799557154 14.12125002773479 3.0432664776254486 13.390000025406913 3.205766488580638 C 7.58874996173889 4.505766576222152 3.250000096441725 9.689517232004702 3.250000096441725 15.880767464157346 C 3.250000096441725 22.07201769630999 7.58874996173889 27.255766802371696 13.390000025406913 28.55576689001321 C 14.12125002773479 28.7182669009684 14.625000433987761 29.384518903617963 14.625000433987761 30.13201895643327 ZM 10.887500013135616 18.659517672073314 L 15.09625038598298 22.868266591331942 C 15.730000381543304 23.502016601367757 16.75375021045874 23.502016601367757 17.387500206019066 22.868266591331942 L 21.596250578866428 18.659517672073314 C 22.62000060149697 17.63576762605929 21.88875050231154 15.880767464157346 20.442500482640785 15.880767464157346" fill="rgb(255,255,255)"/>
        </svg>